<svg width="35" height="34" viewBox="0 0 35 34" fill="none" xmlns="http://www.w3.org/2000/svg">
<path d="M29.8229 28.9708H24.6313V21.08C24.6313 19.1958 24.5875 16.7875 21.9333 16.7875C19.2354 16.7875 18.8271 18.8417 18.8271 20.9525V28.9708H13.6354V12.75H18.6229V14.96H18.6958C19.3958 13.685 21.0875 12.3392 23.6104 12.3392C28.8604 12.3392 29.8229 15.6967 29.8229 20.0742V28.9708ZM7.7875 10.5258C7.39107 10.5258 6.99853 10.45 6.63227 10.3026C6.26602 10.1552 5.93324 9.93923 5.65292 9.66692C5.3726 9.39462 5.15025 9.07134 4.99854 8.71555C4.84683 8.35977 4.76875 7.97843 4.76875 7.59333C4.76875 7.20823 4.84683 6.8269 4.99854 6.47111C5.15025 6.11533 5.3726 5.79205 5.65292 5.51974C5.93324 5.24743 6.26602 5.03143 6.63227 4.88406C6.99853 4.73668 7.39107 4.66083 7.7875 4.66083C8.58812 4.66083 9.35595 4.96979 9.92208 5.51974C10.4882 6.06969 10.8062 6.81559 10.8062 7.59333C10.8062 8.37108 10.4882 9.11697 9.92208 9.66692C9.35595 10.2169 8.58812 10.5258 7.7875 10.5258ZM10.3833 28.9708H5.19167V12.75H10.3833V28.9708ZM32.4188 0H2.58125C1.15208 0 0 1.09083 0 2.43667V31.5633C0 32.9092 1.15208 34 2.58125 34H32.4188C33.8479 34 35 32.9092 35 31.5633V2.43667C35 1.09083 33.8479 0 32.4188 0Z" fill="#F2EEE4"/>
</svg>
